<?xml version="1.0" encoding="utf-8"?>
<!-- Generator: Adobe Illustrator 24.0.1, SVG Export Plug-In . SVG Version: 6.00 Build 0)  -->
<svg version="1.1" id="Layer_1" xmlns="http://www.w3.org/2000/svg" xmlns:xlink="http://www.w3.org/1999/xlink" x="0px" y="0px"
	 viewBox="0 0 150 150" style="enable-background:new 0 0 150 150;" xml:space="preserve">
<style type="text/css">
	.st0{opacity:0.1;fill:#2E2EFD;enable-background:new    ;}
	.st1{fill:#2E2EFD;}
	.st2{fill:#00DAF9;}
	.st3{fill:#000125;}
	.st4{fill:#EEFDFF;}
</style>
<circle class="st0" cx="75" cy="75" r="75"/>
<path class="st1" d="M9,29.7v33.1v2.4c0,2.6,2.1,4.7,4.7,4.7h30.7L57,81.5c0.8,0.8,2.2,0,2-1.1l-2.8-12.9h8.3c2.6,0,4.7-2.1,4.7-4.7
	V29.7c0-2.6-2.1-4.7-4.7-4.7H13.7C11.1,25,9,27.1,9,29.7z"/>
<path class="st2" d="M149.2,57.7v33.1v2.4c0,2.6-2.1,4.7-4.7,4.7h-30.7l-12.6,11.6c-0.8,0.8-2.2,0-2-1.1l2.8-12.9h-8.3
	c-2.6,0-4.7-2.1-4.7-4.7V57.7c0-2.6,2.1-4.7,4.7-4.7h50.8C147.1,53,149.2,55.1,149.2,57.7z"/>
<path class="st3" d="M42,101.4v16.9v1.2c0,1.3,1.1,2.4,2.4,2.4h15.8l6.5,5.9c0.4,0.4,1.1,0,1-0.6l-1.4-6.6h4.3
	c1.3,0,2.4-1.1,2.4-2.4v-16.9c0-1.3-1.1-2.4-2.4-2.4H44.4C43.1,99,42,100.1,42,101.4z"/>
<circle class="st4" cx="25.5" cy="46.5" r="3.5"/>
<circle class="st4" cx="38.5" cy="46.5" r="3.5"/>
<circle class="st4" cx="51.5" cy="46.5" r="3.5"/>
</svg>
