<svg width="16" height="17" viewBox="0 0 16 17" fill="none" xmlns="http://www.w3.org/2000/svg">
<g clip-path="url(#clip0)">
<path d="M7.99996 3.83333C9.0778 3.83333 10.0675 4.20235 10.8575 4.81604L13.2823 2.50273C11.8725 1.25997 10.0271 0.5 7.99996 0.5C4.92822 0.5 2.2644 2.23328 0.923828 4.77323L3.62012 6.90186C4.27327 5.11292 5.98494 3.83333 7.99996 3.83333Z" fill="#F44336"/>
<path d="M15.9307 9.50123C15.9724 9.17347 16 8.83912 16 8.50001C16 7.92811 15.9375 7.37123 15.8235 6.83334H8V10.1667H12.3241C11.9743 11.0759 11.3515 11.8452 10.5587 12.3796L13.265 14.5162C14.6996 13.257 15.6813 11.4936 15.9307 9.50123Z" fill="#2196F3"/>
<path d="M3.33333 8.49999C3.33333 7.93769 3.43791 7.40107 3.62016 6.90185L0.923869 4.77322C0.336222 5.88667 0 7.15343 0 8.49999C0 9.83149 0.330037 11.0842 0.905477 12.1886L3.60518 10.0573C3.43229 9.56961 3.33333 9.04695 3.33333 8.49999Z" fill="#FFC107"/>
<path d="M8.00004 13.1667C5.96969 13.1667 4.24699 11.8677 3.60522 10.0573L0.905518 12.1886C2.23954 14.749 4.91325 16.5 8.00004 16.5C10.0186 16.5 11.8592 15.7501 13.265 14.5162L10.5587 12.3796C9.82751 12.8726 8.95231 13.1667 8.00004 13.1667Z" fill="#00B060"/>
<path opacity="0.1" d="M8.00004 16.3333C5.64559 16.3333 3.52852 15.3619 2.03174 13.8142C3.49695 15.4585 5.62435 16.5 8.00004 16.5C10.3538 16.5 12.4635 15.4791 13.9255 13.8605C12.4331 15.3831 10.3321 16.3333 8.00004 16.3333Z" fill="black"/>
<path opacity="0.1" d="M8 10V10.1667H12.3241L12.3917 10H8Z" fill="black"/>
<path d="M15.9963 8.59803C15.9968 8.5652 16 8.53293 16 8.50001C16 8.49069 15.9985 8.4817 15.9985 8.47238C15.998 8.51437 15.9959 8.55588 15.9963 8.59803Z" fill="#E6E6E6"/>
<path opacity="0.2" d="M8 6.83334V7.00001H15.857C15.8466 6.945 15.8351 6.88795 15.8235 6.83334H8Z" fill="#FEFEFE"/>
<path d="M15.8235 6.83333H8V10.1667H12.3241C11.6517 11.9144 9.98478 13.1667 8 13.1667C5.42269 13.1667 3.33333 11.0773 3.33333 8.5C3.33333 5.92265 5.42269 3.83333 8 3.83333C8.93457 3.83333 9.79594 4.12044 10.5257 4.59379C10.6374 4.66638 10.7526 4.73454 10.8575 4.81604L13.2823 2.50273L13.2276 2.46065C11.8246 1.24471 10.0024 0.5 8 0.5C3.58171 0.5 0 4.08171 0 8.5C0 12.9183 3.58171 16.5 8 16.5C12.0785 16.5 15.437 13.4458 15.9307 9.50122C15.9724 9.17346 16 8.83911 16 8.5C16 7.9281 15.9375 7.37122 15.8235 6.83333Z" fill="url(#paint0_linear)"/>
<path opacity="0.1" d="M10.5257 4.42711C9.79598 3.95377 8.93461 3.66666 8.00004 3.66666C5.42273 3.66666 3.33337 5.75597 3.33337 8.33332C3.33337 8.36144 3.33375 8.38341 3.33424 8.41145C3.3792 5.873 5.45085 3.83332 8.00004 3.83332C8.93461 3.83332 9.79598 4.12043 10.5257 4.59378C10.6374 4.66637 10.7526 4.73453 10.8576 4.81603L13.2823 2.50272L10.8576 4.64936C10.7526 4.56786 10.6374 4.4997 10.5257 4.42711Z" fill="black"/>
<path opacity="0.2" d="M8 0.666667C9.98336 0.666667 11.7886 1.39893 13.1862 2.5944L13.2823 2.50273L13.209 2.43885C11.806 1.22291 10.0024 0.5 8 0.5C3.58171 0.5 0 4.08171 0 8.5C0 8.52812 0.00390627 8.55526 0.00419107 8.58333C0.0493571 4.2039 3.60982 0.666667 8 0.666667Z" fill="#FEFEFE"/>
</g>
<defs>
<linearGradient id="paint0_linear" x1="0" y1="8.5" x2="16" y2="8.5" gradientUnits="userSpaceOnUse">
<stop stop-color="white" stop-opacity="0.2"/>
<stop offset="1" stop-color="white" stop-opacity="0"/>
</linearGradient>
<clipPath id="clip0">
<rect width="16" height="16" fill="white" transform="translate(0 0.5)"/>
</clipPath>
</defs>
</svg>
